<?xml version="1.0"?>
<svg version="1.1" xmlns="http://www.w3.org/2000/svg" width="400px" height="200px" style=""><path fill="#f5f6f7" d="M64.86,110.3l0,1.7l-6.36,0l0-1.7l1.5-0.54l-0.48-1.46l-4.44,0l-0.5,1.44l1.56,0.56l0,1.7l-6.04,0l0-1.7l1.46-0.56l4.4-11.78l3.2-0.06l4.3,11.84z M58.86,106.16l-1.5-4.74l-1.58,4.74l3.08,0z M71.2502,101.2l0.18,1.38s1.44-1.58,2.78-1.58c1.1,0,1.86,0.36,1.86,0.36l-0.16,3.84l-1.8,0l-0.3-1.7c-1.16,0-2.16,1.12-2.16,1.12l0,5.28l2,0.5l0,1.6l-6.6,0l0-1.6l1.6-0.5l0-6.5l-1.6-0.5l0-1.6z M85.6604,112l-0.18-1.06c-0.28,0.28-1.3,1.26-3.02,1.26c-2.8,0-4.1-2.04-4.1-5.34c0-3.76,1.8-5.86,5.46-5.86c0.48,0,1.06,0.1,1.5,0.2l0-2.54l-1.6-0.4l0-1.6l4.6-0.16l0,13.36l1.6,0.4l0,1.6z M85.3204,108.66l0-4.96c-0.38-0.18-0.98-0.3-1.56-0.3c-1.7,0-2.3,1.3-2.3,3.3c0,2.02,0.56,3.1,1.92,3.1c1.28,0,1.94-1.14,1.94-1.14z M97.8106,101c3.24,0,5.04,1.96,5.04,5.4c0,3.6-2.1,5.8-5.34,5.8c-3.26,0-5.1-1.7-5.1-5.5c0-3.6,2.14-5.7,5.4-5.7z M97.7106,103.4c-1.46,0-2.2,0.8-2.2,3.2c0,2.2,0.64,3.2,2.1,3.2c1.44,0,2.14-0.9,2.14-3.3c0-2.04-0.6-3.1-2.04-3.1z M111.5808,102.9l0-1.6l5.24-0.1l0,1.7l-1.14,0.26l-3.22,8.84l-3.3,0l-3.16-8.78l-0.96-0.32l0-1.6l5.24-0.1l0,1.7l-1.12,0.2l1.82,5.9l1.76-5.84z M125.831,112l-0.36-1.3s-1.54,1.5-3.24,1.5c-1.94,0-3.12-1.14-3.12-3.14c0-2.36,1.78-3.3,4.82-3.3l1.4,0l0-1.1c0-1.02-0.54-1.46-1.54-1.46c-1.02,0-1.76,0.3-1.76,0.3l-0.3,1.26l-1.8,0l-0.14-2.96s2.42-0.8,4.34-0.8c3.04,0,4.2,1.06,4.2,3.96l0,4.94l1.5,0.36l0,1.6z M125.331,107.46l-1.14,0c-1.56,0-2.18,0.4-2.18,1.3c0,0.76,0.42,1.2,1.18,1.2c1.06,0,2.14-1.16,2.14-1.16l0-1.34z"/><path fill="#" d=""/></svg>
