<?xml version="1.0"?>
<svg version="1.1" xmlns="http://www.w3.org/2000/svg" width="130px" height="49px" style=""><path fill="#f5f6f7" d="M59.54,28.1l0,2.2l-4.04,0l0,3.8l3.58,0l0.46-1.64l1.8,0l0,4.04l-10.44,0l0-1.7l1.5-0.6l0-9.4l-1.5-0.6l0-1.7l4.6-0.1l5.6,0l0,3.86l-1.8,0l-0.5-1.46l-3.3,0l0,3.3l4.04,0z M71.6302,33.94l0.72,1.52c-0.98,0.72-2.1,1.24-3.4,1.24c-2.3,0-2.96-1.6-2.96-3.9l0-4.6l-1.86,0l0-1.94l1.86-0.26l0-2.76l3-0.54l0,3.3l2.8,0l0,2.2l-2.8,0l0,4.4c0,1.28,0.22,1.8,1.06,1.8c0.54,0,1.32-0.32,1.58-0.46z M84.4004,31.76l-6.64,0c0.12,1.6,1.04,2.54,2.42,2.54c1.66,0,3.36-0.94,3.36-0.94l0.86,1.66s-2,1.68-4.56,1.68c-3.44,0-5.2-2-5.2-5.4c0-3.5,1.98-5.8,5.34-5.8c2.98,0,4.54,1.84,4.54,4.7c0,0.76-0.12,1.5-0.12,1.56z M77.8004,29.9l3.62,0c0-1.14-0.48-2-1.64-2c-1.12,0-1.82,0.82-1.98,2z M91.5106,25.7l0.18,1.38s1.44-1.58,2.78-1.58c1.1,0,1.86,0.36,1.86,0.36l-0.16,3.84l-1.8,0l-0.3-1.7c-1.16,0-2.16,1.12-2.16,1.12l0,5.28l2,0.5l0,1.6l-6.6,0l0-1.6l1.6-0.5l0-6.5l-1.6-0.5l0-1.6z M102.7608,25.7l0.14,1.38s1.9-1.54,3.68-1.54c1.94,0,3.04,1.38,3.04,3.56l0,5.3l1.4,0.5l0,1.6l-5.5,0l0-1.6l1.1-0.5l0-4.76c0-0.92-0.52-1.6-1.36-1.6c-1.24,0-2.14,1.14-2.14,1.14l0,5.22l1.1,0.5l0,1.6l-5.7,0l0-1.6l1.6-0.5l0-6.5l-1.6-0.5l0-1.6z M120.431,36.5l-0.36-1.3s-1.54,1.5-3.24,1.5c-1.94,0-3.12-1.14-3.12-3.14c0-2.36,1.78-3.3,4.82-3.3l1.4,0l0-1.1c0-1.02-0.54-1.46-1.54-1.46c-1.02,0-1.76,0.3-1.76,0.3l-0.3,1.26l-1.8,0l-0.14-2.96s2.42-0.8,4.34-0.8c3.04,0,4.2,1.06,4.2,3.96l0,4.94l1.5,0.36l0,1.6z M119.931,31.96l-1.14,0c-1.56,0-2.18,0.4-2.18,1.3c0,0.76,0.42,1.2,1.18,1.2c1.06,0,2.14-1.16,2.14-1.16l0-1.34z"/><path fill="#" d=""/></svg>
