<?xml version="1.0"?>
<svg version="1.1" xmlns="http://www.w3.org/2000/svg" width="130px" height="49px" style=""><path fill="#f5f6f7" d="M57.7,22.16c4,0,6.3,2.64,6.3,7.1c0,4.5-2.7,7.5-6.7,7.5s-6.2-2.5-6.2-7.2c0-4.6,2.54-7.4,6.6-7.4z M57.6,24.66c-2,0-3.1,1.24-3.1,4.8c0,3.3,0.9,4.8,2.9,4.8s3.2-1.3,3.2-4.9c0-3.3-1-4.7-3-4.7z M67.1902,36.5l0-1.7l1.5-0.6l0-9.4l-1.5-0.6l0-1.7l4.6-0.1l1.9,0c3.06,0,4.86,1.6,4.86,4.2c0,3.36-2.06,5-5.7,5l-1.06,0l0,2.6l1.5,0.6l0,1.7l-6.1,0z M71.7902,29.26l1.06,0c1.66,0,2.6-0.78,2.6-2.26c0-1.3-0.7-2.2-2.06-2.2l-1.6,0l0,4.46z M88.6004,34.1l0.44-2.2l1.9,0l0,4.6l-10,0l0-1.7l1.5-0.6l0-9.4l-1.5-0.6l0-1.7l6.1-0.1l0,1.8l-1.5,0.6l0,9.3l3.06,0z"/><path fill="#" d=""/></svg>
